<?xml version="1.0" encoding="utf-8"?>
<!-- Generator: Adobe Illustrator 22.0.1, SVG Export Plug-In . SVG Version: 6.00 Build 0)  -->
<svg version="1.1" id="레이어_1" xmlns="http://www.w3.org/2000/svg" xmlns:xlink="http://www.w3.org/1999/xlink" x="0px"
	 y="0px" viewBox="0 0 39.4 47.4" style="enable-background:new 0 0 39.4 47.4;" xml:space="preserve">
<style type="text/css">
	.st0{fill:#FEFEFE;}
	.st1{fill:url(#SVGID_1_);}
</style>
<path class="st0" d="M19.9,44.4c-0.8-0.1-1.1-0.6-1.5-1C14.9,40,11.5,36.5,8,33.1c-1.8-1.7-3.3-3.7-4.3-5.9
	c-0.8-1.8-1.5-3.7-1.6-5.7c-0.1-2.7,0-5.4,1-8C4.3,10.5,6,8,8.4,5.9c2.4-2,5.1-3.3,8.1-3.8c2.8-0.5,5.6-0.5,8.4,0.4
	c2.4,0.8,4.6,2,6.5,3.6c3.1,2.8,5.1,6.1,5.8,10.3c0.6,3.4,0.2,6.6-1,9.8c-0.8,2-1.9,3.8-3.5,5.4c-4.1,4.1-8.2,8.2-12.3,12.4
	C20.2,44.2,20.1,44.3,19.9,44.4z"/>
<g>
	<g>
		
			<linearGradient id="SVGID_1_" gradientUnits="userSpaceOnUse" x1="5.6926" y1="1035.6444" x2="33.7007" y2="1063.6525" gradientTransform="matrix(1 0 0 1 0 -1030)">
			<stop  offset="0" style="stop-color:#0798CF"/>
			<stop  offset="0.5" style="stop-color:#847DAF"/>
			<stop  offset="1" style="stop-color:#F56592"/>
		</linearGradient>
		<path class="st1" d="M19.8,47.4c-0.5-0.4-0.8-0.7-1.1-1C14.3,42,9.8,37.8,5.6,33.3c-5.5-5.7-6.8-12.6-4.4-20
			c2.5-7.5,8-12,15.7-13.1c12.9-1.9,22.4,8.4,22.6,18.7c0.1,6-1.9,10.9-6.1,15.1c-3.9,3.9-7.8,7.8-11.7,11.7
			C21.1,46.3,20.5,46.8,19.8,47.4z M19.7,42.3c4.6-4.8,9.2-9,13.1-13.8c2.9-3.6,3.4-8.2,2.2-12.7c-2.8-10.6-15-15-24.1-9
			c-7.3,4.8-9.3,15.8-3.6,22.5C11.1,33.6,15.3,37.6,19.7,42.3z"/>
	</g>
</g>
</svg>
