<?xml version="1.0" encoding="utf-8"?>
<!-- Generator: Adobe Illustrator 22.0.1, SVG Export Plug-In . SVG Version: 6.00 Build 0)  -->
<svg version="1.1" id="레이어_1" xmlns="http://www.w3.org/2000/svg" xmlns:xlink="http://www.w3.org/1999/xlink" x="0px"
	 y="0px" viewBox="0 0 109.383 106.446" style="enable-background:new 0 0 109.383 106.446;" xml:space="preserve">
<style type="text/css">
	.st0{fill:#0A96CD;}
	.st1{fill:#4C4C4C;}
</style>
<g>
	<g>
		<path class="st0" d="M56.645,105.582c-0.469-0.407-0.843-0.694-1.173-1.024c-7.351-7.348-14.681-14.716-22.05-22.046
			c-3.402-3.384-5.217-7.659-6.847-12.026c-0.433-1.159-0.608-2.486-0.584-3.729c0.076-3.969-0.463-7.945,0.411-11.912
			c0.786-3.567,1.981-6.915,4.021-9.948c3.155-4.692,7.207-8.404,12.272-10.925c3.171-1.578,6.525-2.674,10.111-2.776
			c2.397-0.068,4.8,0.057,7.196-0.025c3.35-0.115,6.422,0.967,9.387,2.255c3.741,1.625,6.932,4.087,9.73,7.091
			c2.835,3.044,4.793,6.506,6.432,10.349c1.833,4.297,2.466,8.626,2.188,13.153c-0.104,1.689-0.684,3.357-1.118,5.015
			c-0.333,1.274-0.785,2.517-1.172,3.777c-1.459,4.75-4.401,8.499-7.881,11.932C70.623,91.594,63.741,98.506,56.645,105.582z
			 M56.496,95.902c0.768-0.705,1.25-1.117,1.697-1.564c4.866-4.859,9.708-9.742,14.598-14.577c2.094-2.07,3.997-4.267,5.33-6.91
			c1.213-2.405,2.189-4.882,2.178-7.641c-0.009-2.398,0.017-4.796-0.016-7.193c-0.031-2.239-0.622-4.303-1.697-6.305
			c-1.274-2.373-2.596-4.717-4.455-6.645c-1.413-1.466-3.076-2.73-4.765-3.885c-2.349-1.606-5.108-2.311-7.809-3.095
			c-0.525-0.152-1.083-0.254-1.628-0.265c-4.109-0.08-8.27-0.428-12.132,1.435c-2.33,1.124-4.955,2.004-6.792,3.703
			c-3.224,2.981-5.716,6.53-7.279,10.867c-1.504,4.174-1.518,8.339-0.998,12.425c0.633,4.98,3.198,9.311,6.783,12.918
			c5.074,5.103,10.169,10.185,15.266,15.266C55.263,94.921,55.821,95.33,56.496,95.902z"/>
		<path class="st1" d="M39.859,9.57c1.114,0,1.982,0,2.996,0c0.105,0.499,0.211,1.004,0.36,1.711
			c-6.551,0.987-12.973,1.955-19.565,2.948c-0.069-0.692-0.122-1.213-0.196-1.951c4.641-0.712,9.181-1.409,13.843-2.124
			c0.036-0.66,0.068-1.256,0.115-2.129c-3.992,0.681-7.796,1.33-11.737,2.003c-0.108-0.625-0.198-1.14-0.334-1.926
			c3.914-0.67,7.727-1.322,11.679-1.999c-0.031-0.592-0.057-1.108-0.094-1.824c-3.962,0.574-7.781,1.127-11.747,1.701
			c-0.078-0.689-0.138-1.221-0.223-1.974c4.602-0.702,9.132-1.393,13.822-2.109C39.613,4.389,39.684,6.915,39.859,9.57z"/>
		<path class="st1" d="M28.059,24.925c-0.28-1.994-0.52-3.699-0.781-5.559c3.961-0.614,7.715-1.197,11.603-1.8
			c-0.09-0.564-0.159-1.001-0.254-1.599c-3.871,0.56-7.646,1.106-11.597,1.678c-0.144-0.531-0.281-1.037-0.512-1.893
			c4.72-0.714,9.328-1.411,14.153-2.14c0.271,1.818,0.524,3.519,0.816,5.48c-3.882,0.626-7.615,1.229-11.5,1.856
			c0.073,0.619,0.123,1.041,0.195,1.648c4.086-0.597,8.004-1.17,12.106-1.769c0.141,0.653,0.262,1.216,0.413,1.917
			C37.781,23.476,33.062,24.18,28.059,24.925z"/>
		<path class="st1" d="M8.055,13.215c-2.264,1.115-4.322,2.128-6.517,3.209c-0.333-0.606-0.621-1.131-0.98-1.786
			c2.944-1.464,5.766-2.868,8.72-4.337c1.244,2.471,2.385,4.739,3.636,7.225c-2.164,1.113-4.26,2.191-6.488,3.336
			c0.631,1.31,1.213,2.516,1.95,4.046c2.823-1.517,5.516-2.965,8.362-4.495c0.302,0.401,0.654,0.869,1.211,1.609
			c-3.587,1.954-6.992,3.808-10.697,5.826c-1.336-2.655-2.567-5.101-3.893-7.739c2.178-1.115,4.271-2.185,6.527-3.339
			C9.216,15.471,8.652,14.376,8.055,13.215z"/>
		<path class="st1" d="M46.226,17.199c0-3.022,0-5.698,0-8.589c2.316,0,4.595,0,7.01,0c0-1.445,0-2.686,0-4.115
			c-2.268,0-4.553,0-7.015,0c-0.054-0.745-0.095-1.317-0.144-2.004c3.245,0,6.322,0,9.545,0c0,2.661,0,5.242,0,8.024
			c-2.371,0-4.652,0-7.026,0c0,1.519,0,2.841,0,4.218c3.044,0,6.029,0,9.203,0c0.067,0.414,0.163,1.002,0.313,1.923
			C54.079,16.841,50.224,17.017,46.226,17.199z"/>
		<path class="st1" d="M78.733,9.712c-0.141,0.965-0.261,2.399-0.571,3.791c-0.669,3-3.005,4.671-5.901,4.333
			c-3.09-0.36-4.981-2.49-4.854-5.712c0.062-1.576,0.335-3.168,0.712-4.703c0.776-3.158,3.005-4.798,5.823-4.451
			c3.014,0.371,4.775,2.504,4.792,5.804C78.733,8.933,78.733,9.092,78.733,9.712z M76.328,8.254c-0.13-1.593-0.982-2.706-2.26-2.983
			c-1.487-0.322-2.833,0.266-3.429,1.869c-0.742,1.993-1.288,4.097-0.709,6.251c0.419,1.556,1.482,2.351,2.882,2.373
			c1.247,0.02,2.395-0.722,2.829-2.128c0.415-1.348,0.46-2.777,0.738-4.166"/>
		<path class="st1" d="M98.362,30.141c1.771-4.129,3.425-7.989,5.137-11.98c-1.822-0.836-3.457-1.587-5.243-2.406
			c0.273-0.658,0.501-1.207,0.767-1.849c1.785,0.744,3.455,1.44,5.324,2.219c0.85-1.892,1.65-3.672,2.537-5.645
			c0.676,0.242,1.305,0.466,2.203,0.787c-2.867,6.659-5.681,13.194-8.543,19.841C99.783,30.77,99.151,30.49,98.362,30.141z"/>
		<path class="st1" d="M59.654,0.64c0.727,0,1.337,0,2.173,0c0,2.573,0,5.092,0,7.734c1.21,0.101,2.208,0.184,3.315,0.276
			c0,0.588,0,1.109,0,1.779c-1.001,0.071-2,0.142-3.167,0.225c0,3.785,0,7.506,0,11.353c-0.839,0-1.505,0-2.32,0
			C59.654,14.915,59.654,7.906,59.654,0.64z"/>
		<path class="st1" d="M95.587,7.458c-1.542,3.597-3.039,7.087-4.667,10.885c3.024,1.134,5.887,2.208,8.868,3.326
			c-0.203,0.595-0.375,1.097-0.664,1.941c-3.768-1.4-7.446-2.767-11.288-4.194c1.924-4.443,3.717-8.586,5.571-12.866
			C94.183,6.873,94.817,7.137,95.587,7.458z"/>
		<path class="st1" d="M83.179,2.834c0.848,0.071,1.458,0.122,2.387,0.2c-0.954,7.211-1.886,14.254-2.836,21.436
			c-0.87-0.098-1.549-0.175-2.396-0.271C81.284,17.065,82.214,10.082,83.179,2.834z"/>
		<path class="st1" d="M12.354,6.865c0.741-0.352,1.295-0.615,2.135-1.014c3.206,6.389,6.365,12.684,9.602,19.134
			c-0.681,0.38-1.26,0.703-2.075,1.157C18.791,19.708,15.635,13.412,12.354,6.865z"/>
		<path class="st1" d="M58.952,53.669c0,6.843,0,13.349,0,19.974c-1.026,0-1.956,0-3.199,0c-0.028-1.653-0.07-3.362-0.083-5.072
			c-0.015-1.833-0.003-3.667-0.003-5.5c0-1.751,0-3.502,0-5.513c-1.578,0.877-2.987,1.659-4.57,2.539
			c-0.559-0.887-1.089-1.728-1.727-2.74c2.152-1.224,4.07-2.483,6.135-3.415C56.44,53.52,57.668,53.747,58.952,53.669z"/>
	</g>
</g>
</svg>
