<?xml version="1.0" encoding="utf-8"?>
<!-- Generator: Adobe Illustrator 22.0.1, SVG Export Plug-In . SVG Version: 6.00 Build 0)  -->
<svg version="1.1" id="레이어_1" xmlns="http://www.w3.org/2000/svg" xmlns:xlink="http://www.w3.org/1999/xlink" x="0px"
	 y="0px" viewBox="0 0 62.88 76.32" style="enable-background:new 0 0 62.88 76.32;" xml:space="preserve">
<style type="text/css">
	.st0{fill:#0A96CD;}
	.st1{fill:#FEFEFE;}
	.st2{fill:#434343;}
</style>
<g>
	<g>
		<path class="st0" d="M32.027,75.982c-0.636-0.571-1.122-0.969-1.564-1.41c-6.846-6.835-13.617-13.748-20.556-20.488
			c-3.803-3.694-6.235-8.132-7.902-13.038c-0.524-1.543-0.638-3.26-0.722-4.909c-0.119-2.313-0.081-4.638-0.027-6.956
			c0.117-5.08,1.703-9.71,4.493-13.927c3.123-4.72,7.207-8.41,12.272-10.935c3.173-1.582,6.534-2.674,10.121-2.775
			c2.557-0.072,5.12-0.079,7.677,0.01c3.359,0.117,6.444,1.204,9.51,2.583c3.875,1.743,6.958,4.411,9.772,7.455
			c2.537,2.744,4.533,5.845,5.656,9.458c0.23,0.739,0.63,1.424,0.891,2.156c0.908,2.552,1.082,5.246,0.989,7.886
			c-0.122,3.459-0.24,7.015-1.131,10.322c-0.886,3.286-2.245,6.616-4.657,9.182C51.82,55.947,46.66,61.177,41.527,66.43
			C38.452,69.572,35.327,72.666,32.027,75.982z M31.739,66.253c0.626-0.514,0.951-0.739,1.226-1.013
			c5.541-5.538,11.065-11.093,16.619-16.617c1.876-1.866,3.18-4.113,4.352-6.43c1.148-2.271,1.772-4.706,1.723-7.289
			c-0.04-2.077-0.008-4.154-0.035-6.231c-0.033-2.487-0.732-4.751-1.907-6.974c-1.228-2.322-2.602-4.522-4.373-6.422
			c-2.221-2.383-4.901-4.242-7.919-5.463c-1.874-0.758-3.888-1.451-5.878-1.584c-4.254-0.284-8.59-0.527-12.607,1.398
			c-2.265,1.086-4.793,1.982-6.574,3.639c-3.218,2.994-5.734,6.52-7.297,10.859c-1.53,4.248-1.55,8.476-0.975,12.651
			c0.699,5.078,3.377,9.403,7.035,13.053c4.923,4.911,9.832,9.838,14.755,14.75C30.428,65.123,31.025,65.613,31.739,66.253z"/>
		<path class="st1" d="M31.092,27.8c0,5.625,0,10.865,0,16.137c1.164,0,2.154,0,3.159,0c0-6.662,0-13.176,0-19.929
			c-1.284,0.111-2.572-0.077-3.577,0.371c-2.058,0.916-3.964,2.174-6.04,3.351c0.662,0.997,1.216,1.833,1.794,2.703
			C27.971,29.562,29.327,28.796,31.092,27.8z"/>
		<path class="st2" d="M31.092,27.8c-1.765,0.996-3.121,1.762-4.664,2.633c-0.577-0.87-1.132-1.706-1.794-2.703
			c2.076-1.178,3.982-2.435,6.04-3.351c1.005-0.448,2.293-0.26,3.577-0.371c0,6.753,0,13.267,0,19.929c-1.005,0-1.995,0-3.159,0
			C31.092,38.665,31.092,33.425,31.092,27.8z"/>
	</g>
</g>
</svg>
