<?xml version="1.0" encoding="utf-8"?>
<!-- Generator: Adobe Illustrator 22.0.1, SVG Export Plug-In . SVG Version: 6.00 Build 0)  -->
<svg version="1.1" id="레이어_1" xmlns="http://www.w3.org/2000/svg" xmlns:xlink="http://www.w3.org/1999/xlink" x="0px"
	 y="0px" viewBox="0 0 62.88 76.8" style="enable-background:new 0 0 62.88 76.8;" xml:space="preserve">
<style type="text/css">
	.st0{fill:#F36591;}
	.st1{fill:#484848;}
</style>
<g>
	<g>
		<path class="st0" d="M31.953,76.421c-0.553-0.494-1.039-0.889-1.48-1.33c-7.064-7.067-14.102-14.159-21.19-21.202
			c-2.801-2.784-4.662-6.1-6.16-9.715c-1.393-3.363-2.11-6.79-1.884-10.421c0.183-2.928,0.186-5.877,0.562-8.779
			c0.237-1.832,0.83-3.675,1.583-5.371c2.655-5.977,6.935-10.627,12.445-14.047C19.88,3.041,24.315,1.399,29.2,1.534
			c3.252,0.09,6.571-0.046,9.732,0.573c4.721,0.924,9.081,2.887,12.819,6.096c4.558,3.912,7.617,8.825,9.761,14.331
			c1.305,3.35,1.329,6.917,1.165,10.474c-0.077,1.674,0.042,3.365-0.144,5.025c-0.146,1.303-0.444,2.651-0.984,3.838
			c-1.626,3.572-2.966,7.324-5.698,10.281c-2.378,2.574-4.749,5.157-7.21,7.651c-5.164,5.235-10.384,10.414-15.585,15.613
			C32.731,75.743,32.373,76.04,31.953,76.421z M55.603,31.883c0.388-2.916-0.179-6.277-1.636-9.396
			c-0.955-2.044-1.765-4.234-3.6-5.799c-1.334-1.138-2.474-2.499-3.771-3.685c-0.755-0.69-1.578-1.379-2.493-1.802
			c-1.539-0.712-3.227-1.103-4.762-1.821c-4.188-1.958-8.578-1.543-12.825-0.763c-3.504,0.644-6.698,2.274-9.643,4.57
			c-4.331,3.376-7.094,7.649-8.384,12.805c-0.662,2.647-0.437,5.515-0.614,8.284c-0.187,2.925,0.966,5.568,1.887,8.219
			c0.996,2.867,2.908,5.243,5.015,7.389c5.098,5.19,10.264,10.312,15.418,15.446c1.478,1.472,1.614,1.474,3.072,0.018
			C38.864,59.754,44.56,54.25,49.97,48.479c1.774-1.893,2.85-4.463,4.135-6.785C55.701,38.808,55.657,35.612,55.603,31.883z"/>
		<path class="st1" d="M27.78,28.974c-0.854-0.748-1.497-1.31-2.131-1.865c2.532-3.292,6.778-4.024,9.983-1.829
			c2.288,1.567,2.684,4.933,0.832,7.424c-0.326,0.438-0.827,0.746-1.273,1.137c3.305,2.101,4.177,4.016,2.966,6.981
			c-0.424,1.038-1.247,2.082-2.168,2.718c-3.128,2.163-8.191,1.556-10.885-1.269c0.45-0.732,0.93-1.511,1.509-2.452
			c1.731,1.462,3.669,1.914,5.802,1.642c1.988-0.253,2.537-0.897,2.476-3.014c-0.053-1.823-0.951-2.752-2.765-2.833
			c-0.558-0.025-1.118-0.004-1.678-0.004c-0.546,0-1.091,0-1.742,0c0-1.09,0-2.013,0-3.245c1.032,0,2.053,0.073,3.059-0.017
			c1.641-0.146,2.276-0.975,2.256-2.755c-0.019-1.721-0.479-2.188-2.315-2.286C30.224,27.229,28.856,27.493,27.78,28.974z"/>
	</g>
</g>
</svg>
