<?xml version="1.0" encoding="utf-8"?>
<!-- Generator: Adobe Illustrator 22.0.1, SVG Export Plug-In . SVG Version: 6.00 Build 0)  -->
<svg version="1.1" id="레이어_1" xmlns="http://www.w3.org/2000/svg" xmlns:xlink="http://www.w3.org/1999/xlink" x="0px"
	 y="0px" viewBox="0 0 96.958 106.558" style="enable-background:new 0 0 96.958 106.558;" xml:space="preserve">
<style type="text/css">
	.st0{fill:#F26692;}
	.st1{fill:#484848;}
</style>
<g>
	<g>
		<path class="st0" d="M47.771,106.162c-1.116-1.358-1.898-2.479-2.847-3.436c-6.527-6.585-13.072-13.152-19.646-19.69
			c-2.799-2.784-4.578-6.141-6.144-9.727c-2.239-5.127-2.661-10.491-2.128-15.869c0.303-3.054,1.537-6.059,2.637-8.979
			c1.455-3.862,4.174-6.858,7.111-9.715c3.191-3.104,6.831-5.216,11.05-6.668c5.762-1.982,11.611-1.909,17.344-0.789
			c7.652,1.494,13.786,5.804,18.204,12.26c2.118,3.095,3.873,6.46,4.576,10.227c1.069,5.724,1.446,11.533-0.363,17.104
			c-1.405,4.327-3.536,8.396-6.862,11.751C63.178,90.226,55.77,97.939,47.771,106.162z M71.666,60.651
			c0.386-2.598-0.305-5.84-1.622-8.929c-0.705-1.654-1.49-3.391-2.67-4.704c-3.321-3.696-6.815-6.994-11.922-8.55
			c-4.373-1.333-8.611-1.403-12.869-0.674c-3.506,0.6-6.663,2.265-9.601,4.541c-4.414,3.418-7.238,7.739-8.472,13.014
			c-0.641,2.739-0.449,5.678-0.583,8.528c-0.134,2.835,1.067,5.382,1.941,7.968c0.922,2.73,2.764,4.978,4.739,7.009
			c5.184,5.33,10.479,10.552,15.75,15.796c1.347,1.34,1.508,1.332,2.9-0.058c5.658-5.649,11.404-11.217,16.878-17.04
			c1.725-1.836,2.761-4.343,4.005-6.601C71.775,67.985,71.664,64.699,71.666,60.651z"/>
		<path class="st1" d="M28.679,3.401c3.499-0.22,6.595-0.414,9.923-0.623c0.292,4.546,0.572,8.894,0.871,13.547
			c-3.368,0.208-6.569,0.405-9.962,0.614C29.226,12.308,28.959,7.963,28.679,3.401z M31.046,5.332
			c0.227,3.281,0.439,6.342,0.664,9.576c1.848-0.168,3.478-0.317,5.371-0.49c-0.231-3.278-0.451-6.401-0.676-9.6
			C34.555,4.996,32.978,5.147,31.046,5.332z"/>
		<path class="st1" d="M82.15,18.734c-0.698,0.424-1.209,0.735-1.883,1.145c-1.159-1.926-2.253-3.745-3.401-5.653
			c-1.958,1.213-3.898,2.414-5.956,3.688c-0.389-0.662-0.693-1.179-1.078-1.835c3.531-2.135,7.508-3.836,7.266-9.037
			c-1.242-0.352-2.588-0.734-4.053-1.149c0.185-0.605,0.338-1.103,0.557-1.818c3.565,0.869,7.021,1.711,10.644,2.594
			c-0.147,0.693-0.266,1.255-0.406,1.917c-1.388-0.322-2.614-0.607-3.914-0.908C77.265,11.921,79.724,15.19,82.15,18.734z"/>
		<path class="st1" d="M51.225,7.353c-0.045-3.101,2.084-5.219,5.274-5.248c3.349-0.03,5.826,2.068,5.894,4.992
			c0.069,2.977-2.192,5.214-5.318,5.262C53.774,12.41,51.267,10.264,51.225,7.353z M56.716,4.217
			c-1.991,0.003-3.271,1.131-3.336,2.942c-0.063,1.75,1.448,3.09,3.482,3.089c1.996,0,3.249-1.133,3.279-2.966
			C60.173,5.389,58.86,4.214,56.716,4.217z"/>
		<path class="st1" d="M17.237,11.686c-0.01,2.816-2.534,5.102-5.571,5.047c-2.872-0.052-5.139-2.618-5.137-5.813
			c0.002-2.805,2.601-5.17,5.575-5.074C14.988,5.94,17.249,8.512,17.237,11.686z M11.738,14.649
			c1.927,0.048,3.242-1.157,3.242-2.973c0-2.285-1.18-3.689-3.105-3.695c-1.804-0.005-3.112,1.16-3.181,2.833
			C8.609,12.895,9.966,14.604,11.738,14.649z"/>
		<path class="st1" d="M87.043,5.51c0.787,0.164,1.442,0.3,2.229,0.464c-0.587,2.476-1.135,4.786-1.737,7.328
			c0.949,0.336,1.881,0.665,2.933,1.037c-0.114,0.532-0.225,1.054-0.368,1.723c-0.973-0.155-1.897-0.301-3.091-0.491
			c-0.908,3.536-1.823,7.102-2.761,10.756c-0.746-0.191-1.346-0.344-2.173-0.556C83.73,19.018,85.37,12.333,87.043,5.51z"/>
		<path class="st1" d="M44.589,10.14c0.221,3.784,0.434,7.424,0.659,11.275c-0.799,0.058-1.451,0.106-2.267,0.165
			c-0.447-7.028-0.88-13.856-1.323-20.827c0.808-0.088,1.407-0.153,2.244-0.243c0.193,2.538,0.377,4.957,0.564,7.422
			c1.127,0,1.986,0,3.011,0c0.075,0.61,0.146,1.191,0.238,1.935C46.608,9.963,45.685,10.044,44.589,10.14z"/>
		<path class="st1" d="M65.447,1.527c0.776,0,1.382,0,2.284,0c-0.45,6.989-0.894,13.879-1.347,20.921
			c-0.854-0.078-1.448-0.132-2.251-0.206C64.575,15.263,65.008,8.436,65.447,1.527z"/>
		<path class="st1" d="M18.626,3.204c0.831-0.156,1.431-0.268,2.195-0.411c0.488,1.846,0.948,3.591,1.436,5.439
			c0.923-0.159,1.763-0.303,2.748-0.472c0.177,0.503,0.35,0.993,0.58,1.645c-0.886,0.319-1.683,0.606-2.769,0.998
			c0.489,2.157,0.989,4.357,1.523,6.712c-0.679,0.209-1.32,0.406-2.124,0.653C21.02,12.915,19.864,8.226,18.626,3.204z"/>
		<path class="st1" d="M15.151,23.367c3.562-0.853,7.02-1.681,10.596-2.537c0.2,0.586,0.369,1.084,0.633,1.856
			c-4.33,1.075-8.53,2.118-13.014,3.232c-0.563-2.191-1.105-4.299-1.698-6.606c0.695-0.252,1.319-0.478,2.11-0.764
			C14.258,20.231,14.684,21.727,15.151,23.367z"/>
		<path class="st1" d="M63.248,15.353c0.038,0.732,0.062,1.193,0.09,1.738c-4.535,0-9.031,0-13.656,0c0-0.747,0-1.263,0-2.05
			c2.227,0.105,4.418,0.249,6.611,0.3C58.518,15.393,60.744,15.353,63.248,15.353z"/>
		<path class="st1" d="M41.121,71.465c0.526-0.837,0.979-1.556,1.523-2.421c1.812,1.444,3.81,1.955,6.03,1.587
			c1.812-0.3,2.311-0.92,2.258-2.964c-0.045-1.732-0.9-2.751-2.505-2.844c-1.181-0.068-2.369-0.013-3.673-0.013
			c0-1.073,0-1.998,0-3.241c1.008,0,2.027,0.072,3.033-0.016c1.653-0.144,2.288-0.963,2.275-2.739
			c-0.012-1.73-0.468-2.189-2.294-2.31c-1.717-0.114-2.246,0.084-3.919,1.503c-0.361-0.244-0.763-0.481-1.125-0.771
			c-0.36-0.288-0.679-0.628-1.006-0.936c2.461-3.274,6.708-4.022,9.934-1.832c2.226,1.511,2.689,4.723,1.002,7.227
			c-0.351,0.521-0.852,0.941-1.287,1.411c3.176,2.055,4.031,3.939,2.83,6.895c-0.422,1.039-1.237,2.087-2.154,2.726
			C48.94,74.892,43.886,74.301,41.121,71.465z"/>
	</g>
</g>
</svg>
