<?xml version="1.0" encoding="utf-8"?>
<!-- Generator: Adobe Illustrator 22.0.1, SVG Export Plug-In . SVG Version: 6.00 Build 0)  -->
<svg version="1.1" id="레이어_1" xmlns="http://www.w3.org/2000/svg" xmlns:xlink="http://www.w3.org/1999/xlink" x="0px"
	 y="0px" viewBox="0 0 109.44 107.04" style="enable-background:new 0 0 109.44 107.04;" xml:space="preserve">
<style type="text/css">
	.st0{fill:#FEFEFE;}
	.st1{fill:#494949;}
	.st2{fill:#867FAF;}
</style>
<path class="st0" d="M57.259,98.173c-1.213-0.087-1.66-0.909-2.246-1.492c-5.042-5.013-10.047-10.063-15.094-15.072
	c-2.566-2.547-4.783-5.384-6.282-8.643c-1.197-2.602-2.201-5.34-2.267-8.308c-0.087-3.936-0.055-7.806,1.429-11.588
	c1.688-4.303,4.202-7.934,7.688-10.932c3.438-2.957,7.477-4.817,11.859-5.542c4.028-0.667,8.157-0.66,12.173,0.644
	c3.53,1.147,6.715,2.86,9.498,5.303c4.565,4.006,7.464,8.952,8.471,14.991c0.82,4.923,0.347,9.677-1.526,14.306
	c-1.193,2.946-2.839,5.604-5.072,7.857c-5.97,6.024-11.982,12.006-17.981,18.001C57.732,97.873,57.502,97.998,57.259,98.173z"/>
<g>
	<g>
		<path class="st1" d="M109.44,12c-1.13,2.429-2.293,4.842-3.381,7.289c-1.741,3.915-3.431,7.852-5.211,11.937
			c-0.732-0.321-1.342-0.589-2.129-0.935c1.718-3.98,3.38-7.829,5.157-11.944c-1.737-0.794-3.428-1.568-5.266-2.408
			c0.259-0.609,0.486-1.143,0.775-1.824c1.819,0.737,3.486,1.412,5.354,2.169c0.841-1.884,1.64-3.674,2.437-5.459
			c0.796,0.076,1.53,0.146,2.264,0.216C109.44,11.36,109.44,11.68,109.44,12z"/>
		<path class="st2" d="M56.746,106.236c-0.746-0.69-1.281-1.151-1.779-1.648c-6.559-6.561-13.137-13.103-19.659-19.701
			c-3.656-3.698-6.431-7.865-8.097-12.942c-1.821-5.551-1.992-10.937-0.897-16.595c1.727-8.927,6.877-15.371,14.267-20.143
			c4.002-2.584,8.482-4.169,13.38-4.007c3.257,0.108,6.616-0.161,9.748,0.544c7.547,1.698,13.875,5.662,18.193,12.18
			c4.778,7.213,7.291,15.113,5.334,23.864c-1.435,6.417-4.414,12.106-9.05,16.8c-5.445,5.513-11.041,10.875-16.533,16.342
			C60.018,102.557,58.515,104.315,56.746,106.236z M56.657,96.567c5.889-5.978,11.436-11.721,17.109-17.337
			c6.665-6.597,7.587-14.666,6.042-23.301c-0.391-2.185-1.506-4.281-2.514-6.305c-1.782-3.577-4.704-6.263-7.962-8.357
			c-4.043-2.598-8.619-3.54-13.523-3.501c-6.423,0.05-11.652,2.552-16.167,6.801c-2.736,2.575-4.561,5.738-5.858,9.345
			c-1.624,4.516-1.572,9.011-0.776,13.558c0.965,5.506,4.169,9.791,8.008,13.653c4.509,4.537,9.031,9.06,13.557,13.579
			C55.118,95.247,55.72,95.733,56.657,96.567z"/>
		<path class="st1" d="M37.61,10.313c0-0.83,0-1.356,0-2.13c-3.869,0.669-7.603,1.314-11.535,1.994
			c-0.137-0.643-0.255-1.2-0.403-1.896c3.991-0.672,7.816-1.316,11.77-1.983c-0.091-0.683-0.16-1.196-0.247-1.844
			C33.306,5.007,29.539,5.543,25.617,6.1c-0.091-0.642-0.163-1.156-0.271-1.92c4.669-0.701,9.2-1.382,13.973-2.099
			c0.343,2.657,0.666,5.15,1.001,7.744c0.963-0.077,1.816-0.145,2.773-0.222c0.161,0.545,0.31,1.049,0.535,1.813
			c-6.493,0.989-12.851,1.958-19.403,2.957c-0.167-0.553-0.332-1.097-0.575-1.901C28.363,11.744,32.902,11.041,37.61,10.313z"/>
		<path class="st1" d="M27.368,17.742c-0.136-0.575-0.255-1.08-0.428-1.813c4.744-0.711,9.347-1.401,14.091-2.112
			c0.29,1.896,0.538,3.525,0.832,5.45c-3.868,0.6-7.609,1.18-11.469,1.779c-0.021,0.476-0.041,0.91-0.077,1.711
			c4.182-0.586,8.164-1.145,12.277-1.722c0.138,0.604,0.252,1.106,0.417,1.832c-4.89,0.737-9.65,1.454-14.581,2.197
			c-0.269-1.949-0.504-3.651-0.763-5.528c3.967-0.617,7.724-1.202,11.466-1.784c0.205-1.397-0.425-1.644-1.495-1.479
			c-2.836,0.439-5.677,0.849-8.516,1.264C28.577,17.619,28.028,17.667,27.368,17.742z"/>
		<path class="st1" d="M53.651,4.62c-2.396,0-4.684,0-7.122,0c0-0.772,0-1.352,0-1.981c3.205,0,6.286,0,9.489,0
			c0,2.639,0,5.159,0,7.908c-2.31,0-4.59,0-7.018,0c0,1.607,0,2.988,0,4.438c3.029,0,5.954,0,9.042,0
			c0.089,0.374,0.209,0.88,0.429,1.806c-3.975,0.194-7.76,0.378-11.757,0.573c0-2.966,0-5.702,0-8.655c2.251,0,4.533,0,6.938,0
			C53.651,7.268,53.651,6.04,53.651,4.62z"/>
		<path class="st1" d="M1.829,16.555c-0.348-0.634-0.601-1.096-0.935-1.703c2.921-1.47,5.679-2.858,8.684-4.37
			c1.205,2.357,2.384,4.661,3.679,7.195c-2.227,1.147-4.314,2.222-6.516,3.356c0.674,1.379,1.258,2.575,1.999,4.093
			c2.783-1.524,5.466-2.994,8.322-4.558c0.273,0.336,0.597,0.735,1.073,1.32c-3.197,2.556-6.854,4.087-10.559,6.018
			c-1.297-2.547-2.543-4.995-3.867-7.595c2.16-1.105,4.205-2.151,6.538-3.344c-0.605-1.203-1.188-2.362-1.81-3.598
			C6.17,14.462,4.037,15.49,1.829,16.555z"/>
		<path class="st1" d="M67.76,11.343c0.197-1.006,0.375-2.774,0.902-4.43c0.909-2.857,3.03-4.071,5.902-3.646
			c2.647,0.391,4.428,2.225,4.487,5.066c0.037,1.809-0.231,3.67-0.669,5.432c-0.783,3.149-3.144,4.738-5.958,4.283
			C69.41,17.56,67.685,15.359,67.76,11.343z M76.77,10.065c0.062-2.953-0.953-4.523-2.676-4.745
			c-1.73-0.223-3.105,1.036-3.556,3.397c-0.237,1.241-0.428,2.516-0.417,3.774c0.017,2.022,1.044,3.227,2.64,3.388
			c1.607,0.162,2.948-0.784,3.455-2.638C76.548,12.024,76.657,10.745,76.77,10.065z"/>
		<path class="st1" d="M62.33,0.76c0,2.791,0,5.232,0,7.824c1.105,0,2.038,0,3.106,0c0.077,0.654,0.137,1.166,0.222,1.889
			c-1.089,0.104-2.077,0.198-3.226,0.307c0,3.785,0,7.502,0,11.43c-0.801,0.101-1.456,0.184-2.327,0.294c0-7.243,0-14.299,0-21.594
			C60.643,0.874,61.299,0.829,62.33,0.76z"/>
		<path class="st1" d="M93.773,6.62c0.845,0.408,1.399,0.676,2.103,1.015c-1.531,3.593-3.018,7.084-4.637,10.883
			c2.914,1.095,5.702,2.143,8.666,3.257c-0.075,0.494-0.163,1.07-0.31,2.037c-3.839-1.422-7.467-2.766-11.391-4.219
			C90.091,15.198,91.89,11.008,93.773,6.62z"/>
		<path class="st1" d="M24.456,25.207c-0.746,0.377-1.299,0.655-2.088,1.054c-3.208-6.362-6.373-12.641-9.626-19.092
			c0.641-0.406,1.198-0.758,1.998-1.264C17.994,12.369,21.165,18.669,24.456,25.207z"/>
		<path class="st1" d="M83.031,24.571c-0.854-0.107-1.517-0.19-2.314-0.291c0.951-7.127,1.878-14.078,2.843-21.309
			c0.81,0.138,1.518,0.259,2.318,0.396C84.916,10.53,83.984,17.472,83.031,24.571z"/>
		<path class="st1" d="M52.144,59.652c-0.723-0.553-1.459-1.116-2.178-1.666c2.082-4.455,6.819-4.884,9.716-3.743
			c3.704,1.458,4.068,5.226,2.465,8.397c-0.764,1.512-2.144,2.734-3.338,4.001c-1.299,1.378-2.705,2.656-4.466,4.369
			c3.436,0,6.316,0,9.348,0c0,1.132,0,2.045,0,3.097c-4.578,0-9.17,0-13.855,0c-0.54-1.532-0.143-2.665,1.023-3.81
			c2.438-2.394,4.731-4.936,7.08-7.42c0.273-0.289,0.553-0.578,0.786-0.899c1.057-1.459,1.111-3.433,0.136-4.338
			c-0.914-0.848-3.524-0.827-4.662,0.092C53.53,58.272,52.936,58.905,52.144,59.652z"/>
	</g>
</g>
</svg>
