<?xml version="1.0" encoding="utf-8"?>
<!-- Generator: Adobe Illustrator 22.0.1, SVG Export Plug-In . SVG Version: 6.00 Build 0)  -->
<svg version="1.1" id="레이어_1" xmlns="http://www.w3.org/2000/svg" xmlns:xlink="http://www.w3.org/1999/xlink" x="0px"
	 y="0px" viewBox="0 0 62.88 76.8" style="enable-background:new 0 0 62.88 76.8;" xml:space="preserve">
<style type="text/css">
	.st0{fill:#877FAF;}
	.st1{fill:#494949;}
</style>
<g>
	<g>
		<path class="st0" d="M31.7,76.578c-8.41-8.686-16.947-16.993-24.838-25.873c-3.839-4.32-5.583-9.932-5.666-15.999
			C1.113,28.669,1.472,22.872,4.561,17.47C8.37,10.808,13.633,5.841,20.829,3.108c5.956-2.262,12.251-2.456,18.28-1.015
			c12.1,2.894,20.099,10.726,22.802,22.823c2.535,11.343-0.079,21.773-8.64,30.237C46.176,62.168,39.112,69.213,31.7,76.578z
			 M31.823,66.824c5.134-5.146,9.766-10.231,14.865-14.794c7.087-6.341,10.042-13.992,8.949-23.373
			c-0.51-4.379-2.125-8.251-4.952-11.566c-3.115-3.651-6.682-6.572-11.527-7.932c-7.47-2.097-14.502-1.427-20.851,2.942
			c-8.468,5.826-11.69,14.322-10.241,24.25c0.544,3.729,2.191,7.786,4.581,10.656c5.192,6.234,11.184,11.803,16.857,17.635
			C30.156,65.312,30.865,65.925,31.823,66.824z"/>
		<path class="st1" d="M29.954,41.437c3.213,0,6.066,0,9.066,0c0,1.046,0,1.956,0,2.992c-4.626,0-9.224,0-14.544,0
			c0.652-1.471,0.921-2.779,1.683-3.662c2.182-2.531,4.573-4.883,6.865-7.32c1.465-1.558,2.809-3.267,1.186-5.392
			c-1.116-1.46-4.048-0.803-5.811,1.126c-0.211,0.23-0.352,0.524-0.651,0.979c-0.991-0.762-1.772-1.361-2.544-1.954
			c2.473-3.683,5.639-4.943,9.3-3.814c3.725,1.149,5.224,5.563,2.715,8.926C35.144,36.1,32.592,38.526,29.954,41.437z"/>
	</g>
</g>
</svg>
