<?xml version="1.0" encoding="utf-8"?>
<!-- Generator: Adobe Illustrator 22.0.1, SVG Export Plug-In . SVG Version: 6.00 Build 0)  -->
<svg version="1.1" id="레이어_1" xmlns="http://www.w3.org/2000/svg" xmlns:xlink="http://www.w3.org/1999/xlink" x="0px"
	 y="0px" viewBox="0 0 44.64 44.64" style="enable-background:new 0 0 44.64 44.64;" xml:space="preserve">
<style type="text/css">
	.st0{fill:none;stroke:url(#SVGID_1_);stroke-width:2;stroke-miterlimit:10;}
	.st1{fill:none;stroke:url(#SVGID_2_);stroke-width:2;stroke-miterlimit:10;}
	.st2{fill:none;stroke:url(#SVGID_3_);stroke-width:2;stroke-miterlimit:10;}
	.st3{fill:none;stroke:url(#SVGID_4_);stroke-width:2;stroke-miterlimit:10;}
	.st4{fill:none;stroke:url(#SVGID_5_);stroke-width:2;stroke-miterlimit:10;}
	.st5{fill:none;stroke:url(#SVGID_6_);stroke-width:2;stroke-miterlimit:10;}
</style>
<linearGradient id="SVGID_1_" gradientUnits="userSpaceOnUse" x1="0.1794" y1="21.5665" x2="44.4606" y2="21.5665" gradientTransform="matrix(1 0 0 -1 0 44)">
	<stop  offset="0" style="stop-color:#0798CF"/>
	<stop  offset="1" style="stop-color:#F56592"/>
</linearGradient>
<circle class="st0" cx="22.32" cy="22.433" r="21.141"/>
<linearGradient id="SVGID_2_" gradientUnits="userSpaceOnUse" x1="9.5196" y1="32.1165" x2="35.1204" y2="32.1165">
	<stop  offset="0" style="stop-color:#F56592"/>
	<stop  offset="1" style="stop-color:#0798CF"/>
</linearGradient>
<path class="st1" d="M10.57,33.387c-0.02,0-0.038-0.012-0.046-0.03c-0.01-0.025,0.001-0.055,0.027-0.065
	c3.768-1.567,7.749-2.389,11.831-2.441c0.139-0.002,0.277-0.003,0.416-0.003c3.869,0,7.666,0.695,11.29,2.068
	c0.026,0.01,0.039,0.039,0.029,0.064c-0.01,0.026-0.04,0.037-0.064,0.029c-3.613-1.369-7.397-2.063-11.255-2.063
	c-0.138,0-0.276,0.001-0.415,0.003c-4.069,0.053-8.037,0.872-11.794,2.434C10.582,33.386,10.576,33.387,10.57,33.387z"/>
<linearGradient id="SVGID_3_" gradientUnits="userSpaceOnUse" x1="30" y1="24.9873" x2="30" y2="11.387">
	<stop  offset="0" style="stop-color:#F56592"/>
	<stop  offset="1" style="stop-color:#0798CF"/>
</linearGradient>
<path class="st2" d="M35.094,23.987c-0.014,0-0.027-0.006-0.037-0.017l-10.188-11.5c-0.019-0.021-0.017-0.052,0.004-0.071
	c0.021-0.018,0.053-0.018,0.07,0.004l10.188,11.5c0.019,0.021,0.017,0.053-0.004,0.07C35.117,23.983,35.105,23.987,35.094,23.987z"
	/>
<linearGradient id="SVGID_4_" gradientUnits="userSpaceOnUse" x1="30.4058" y1="24.7373" x2="30.4058" y2="11.2742">
	<stop  offset="0" style="stop-color:#F56592"/>
	<stop  offset="1" style="stop-color:#0798CF"/>
</linearGradient>
<path class="st3" d="M25.273,23.737c-0.012,0-0.024-0.004-0.033-0.013c-0.021-0.019-0.022-0.05-0.004-0.07l10.265-11.363
	c0.018-0.021,0.051-0.022,0.07-0.003c0.021,0.019,0.022,0.05,0.004,0.071L25.311,23.721C25.301,23.732,25.287,23.737,25.273,23.737z
	"/>
<linearGradient id="SVGID_5_" gradientUnits="userSpaceOnUse" x1="13.0254" y1="24.3917" x2="13.0254" y2="10.9287">
	<stop  offset="0" style="stop-color:#F56592"/>
	<stop  offset="1" style="stop-color:#0798CF"/>
</linearGradient>
<path class="st4" d="M7.893,23.392c-0.012,0-0.024-0.004-0.033-0.013c-0.021-0.019-0.022-0.05-0.004-0.07l10.265-11.363
	c0.018-0.021,0.051-0.022,0.07-0.003c0.021,0.019,0.022,0.05,0.004,0.071L7.93,23.375C7.92,23.387,7.907,23.392,7.893,23.392z"/>
<linearGradient id="SVGID_6_" gradientUnits="userSpaceOnUse" x1="12.6508" y1="24.4603" x2="12.6508" y2="10.8601">
	<stop  offset="0" style="stop-color:#F56592"/>
	<stop  offset="1" style="stop-color:#0798CF"/>
</linearGradient>
<path class="st5" d="M17.745,23.46c-0.014,0-0.027-0.006-0.037-0.017L7.52,11.944c-0.019-0.021-0.017-0.052,0.004-0.071
	c0.021-0.018,0.053-0.018,0.07,0.004l10.188,11.5c0.019,0.021,0.017,0.053-0.004,0.07C17.768,23.456,17.756,23.46,17.745,23.46z"/>
</svg>
