<?xml version="1.0" encoding="utf-8"?>
<!-- Generator: Adobe Illustrator 22.0.1, SVG Export Plug-In . SVG Version: 6.00 Build 0)  -->
<svg version="1.1" id="레이어_1" xmlns="http://www.w3.org/2000/svg" xmlns:xlink="http://www.w3.org/1999/xlink" x="0px"
	 y="0px" viewBox="0 0 19.3 22" style="enable-background:new 0 0 19.3 22;" xml:space="preserve">
<style type="text/css">
	.st0{fill:none;stroke:#404040;stroke-width:0.5;stroke-miterlimit:10;}
	.st1{fill:#404040;}
</style>
<g>
	<path class="st0" d="M15.4,8.8V3c0-1.5-1.3-2.8-2.8-2.8H3C1.4,0.2,0.3,1.4,0.3,3v15.9c0,1.5,1.3,2.8,2.8,2.8h9.6
		c1.5,0,2.8-1.3,2.8-2.8v-1.7"/>
	<path class="st1" d="M10.4,12.3H17c-0.3-0.7-0.5-1.2-0.5-1.8c0.7,1.1,1.7,1.6,2.8,2.2c-1.2,0.5-2.1,1.1-2.8,2.2
		c0-0.7,0.2-1.1,0.5-1.8h-6.7L10.4,12.3L10.4,12.3z"/>
</g>
</svg>
