<?xml version="1.0" encoding="utf-8"?>
<!-- Generator: Adobe Illustrator 22.0.1, SVG Export Plug-In . SVG Version: 6.00 Build 0)  -->
<svg version="1.1" id="Layer_1" xmlns="http://www.w3.org/2000/svg" xmlns:xlink="http://www.w3.org/1999/xlink" x="0px" y="0px"
	 viewBox="0 0 442.874 79.343" style="enable-background:new 0 0 442.874 79.343;" xml:space="preserve">
<style type="text/css">
	.st0{fill:#004098;}
	.st1{fill:#0099D9;}
</style>
<path class="st0" d="M193.833,36.55c-0.399-11.747-10.131-21.211-21.954-21.211c-5.766,0-11.214,2.219-15.341,6.25
	c-3.985,3.894-6.314,9.06-6.592,14.601h-0.033v22.798h8.227V37.31c0-7.576,6.164-13.741,13.739-13.741
	c7.579,0,13.743,6.165,13.743,13.741v21.678h8.233V37.116l-0.005-0.566H193.833z"/>
<path class="st0" d="M72.454,15.339c-5.664,0-11.005,2.128-15.097,6.008l-0.008-0.006L43.807,34.888
	C42.599,23.83,33.234,15.339,21.976,15.339C9.855,15.339,0,25.195,0,37.31c0,12.114,9.855,21.969,21.976,21.969
	c5.69,0,11.047-2.147,15.151-6.065l0.005,0.005l19.31-19.332h0.003l6.298-6.293c2.59-2.594,6.041-4.025,9.713-4.025
	c3.669,0,7.119,1.431,9.716,4.025c5.332,5.335,5.349,14.025,0.047,19.384c-0.024,0.019-0.039,0.037-0.051,0.047l-0.053,0.049
	l-0.012,0.022c-2.59,2.55-6.012,3.952-9.647,3.952c-3.653,0-7.096-1.419-9.691-3.993l-4.256-4.261l-0.166-0.154l-0.011-0.002
	c-0.762-0.696-1.734-1.078-2.759-1.078c-0.972,0-1.909,0.343-2.649,0.967l-0.47,0.466l-0.034,0.038
	c-0.237,0.28-0.43,0.597-0.589,0.939c-0.247,0.537-0.374,1.107-0.374,1.674v33.699h8.228V55.19
	c3.707,2.645,8.196,4.089,12.771,4.089h0.004c5.868,0,11.384-2.284,15.534-6.429c4.15-4.154,6.431-9.672,6.431-15.539
	c0-5.871-2.288-11.388-6.437-15.535C83.838,17.624,78.322,15.339,72.454,15.339 M21.976,23.569c7.575,0,13.731,6.165,13.731,13.741
	c0,7.577-6.156,13.74-13.731,13.74c-7.58,0-13.745-6.163-13.745-13.74C8.231,29.734,14.396,23.569,21.976,23.569"/>
<path class="st1" d="M294.649,36.55c-0.398-11.747-10.132-21.211-21.948-21.211c-12.111,0-21.971,9.856-21.971,21.971
	c0,12.114,9.859,21.969,21.971,21.969c5.017,0,9.85-1.706,13.741-4.826v4.534h8.228V37.116l-0.003-0.566H294.649z M272.701,23.569
	c7.574,0,13.739,6.165,13.739,13.741c0,7.577-6.165,13.74-13.739,13.74c-7.579,0-13.741-6.163-13.741-13.74
	C258.96,29.734,265.122,23.569,272.701,23.569"/>
<path class="st1" d="M386.321,20.13c-3.881-3.1-8.7-4.791-13.688-4.791c-12.118,0-21.974,9.856-21.974,21.971
	c0,12.114,9.855,21.969,21.974,21.969c11.658,0,21.182-8.984,21.912-20.557h0.054V0h-8.277V20.13z M386.328,38.337
	c-0.528,7.147-6.505,12.713-13.695,12.713c-7.581,0-13.745-6.163-13.745-13.74c0-7.576,6.164-13.741,13.745-13.741
	c7.124,0,13.136,5.56,13.688,12.66v1.928L386.328,38.337z"/>
<path class="st1" d="M245.091,36.55c-0.404-11.747-10.136-21.211-21.953-21.211c-5.015,0-9.848,1.705-13.738,4.827V0h-8.232v58.988
	h8.232V37.31c0-7.576,6.163-13.741,13.738-13.741c7.574,0,13.741,6.165,13.741,13.741v21.678h8.23V37.116l-0.005-0.566H245.091z"/>
<path class="st1" d="M345.042,36.55c-0.399-11.747-10.139-21.211-21.951-21.211c-5.768,0-11.219,2.219-15.342,6.25
	c-3.989,3.894-6.315,9.06-6.591,14.601h-0.037v22.798h8.232V37.31c0-7.576,6.161-13.741,13.738-13.741
	c7.573,0,13.737,6.165,13.737,13.741v21.678h8.233V37.116l-0.005-0.566H345.042z"/>
<path class="st1" d="M432.417,41.426c0.015,0.001,0.026,0.004,0.043,0.004c0.807,0,1.464,0.655,1.464,1.462
	c0,0.185-0.036,0.362-0.099,0.524c-2.275,4.602-6.993,7.631-12.291,7.634c-4.091-0.002-7.873-1.778-10.486-4.9h-9.59
	c3.514,7.976,11.388,13.128,20.076,13.13c9.749-0.002,18.129-6.308,20.958-15.364c0-0.004,0-0.008,0.002-0.011
	c0.247-0.782,0.38-1.615,0.38-2.479c0-4.546-3.684-8.232-8.23-8.232l-23.993-0.001c-0.011-0.001-0.024-0.003-0.04-0.003
	c-0.811,0-1.464-0.655-1.464-1.464c0-0.184,0.035-0.361,0.097-0.523c2.278-4.602,6.996-7.632,12.291-7.633
	c4.09,0.001,7.876,1.777,10.487,4.899h9.589c-3.514-7.975-11.388-13.127-20.076-13.13c-9.748,0.003-18.127,6.307-20.955,15.365
	c-0.003,0.003-0.003,0.008-0.003,0.011c-0.249,0.782-0.382,1.614-0.382,2.478c0,4.546,3.686,8.231,8.231,8.231L432.417,41.426z"/>
<path class="st0" d="M121.918,15.339c-12.112,0-21.97,9.856-21.97,21.971c0,12.114,9.858,21.969,21.97,21.969
	c8.693,0,16.578-5.151,20.092-13.129h-9.593c-2.619,3.123-6.402,4.9-10.499,4.9c-6.036,0-11.333-3.922-13.114-9.623h30.969
	c2.273,0,4.118-1.842,4.118-4.116V37.31C143.891,25.195,134.033,15.339,121.918,15.339 M108.804,33.193
	c1.781-5.7,7.07-9.624,13.114-9.624c6.041,0,11.328,3.924,13.113,9.624H108.804z"/>
</svg>
